<svg width="17" height="14" viewBox="0 0 17 14" fill="none" xmlns="http://www.w3.org/2000/svg">
<path d="M1 2.71429C1 2.25963 1.17559 1.82359 1.48816 1.5021C1.80072 1.18061 2.22464 1 2.66667 1H14.3333C14.7754 1 15.1993 1.18061 15.5118 1.5021C15.8244 1.82359 16 2.25963 16 2.71429M1 2.71429V11.2857C1 11.7404 1.17559 12.1764 1.48816 12.4979C1.80072 12.8194 2.22464 13 2.66667 13H14.3333C14.7754 13 15.1993 12.8194 15.5118 12.4979C15.8244 12.1764 16 11.7404 16 11.2857V2.71429M1 2.71429L8.5 7.85714L16 2.71429" stroke="#186FD4" stroke-width="1.3" stroke-miterlimit="10" stroke-linecap="round" stroke-linejoin="round"/>
</svg>
